<svg width="400" height="342" xmlns="http://www.w3.org/2000/svg">
 <defs>
  <linearGradient spreadMethod="reflect" y2="1.02793" x2="0.49999" y1="-0.08029" x1="0.49999" id="SVGID_1__43999">
   <stop stop-color="#6DC7FF" offset="0"/>
   <stop stop-color="#E6ABFF" offset="1"/>
  </linearGradient>
  <linearGradient spreadMethod="reflect" y2="1.05568" x2="0.5" y1="-0.05435" x1="0.5" id="SVGID_2__43999">
   <stop stop-color="#1A6DFF" offset="0"/>
   <stop stop-color="#C822FF" offset="1"/>
  </linearGradient>
  <linearGradient spreadMethod="reflect" y2="4.2806" x2="0.5" y1="-21.25" x1="0.5" id="SVGID_3__43999">
   <stop stop-color="#1A6DFF" offset="0"/>
   <stop stop-color="#C822FF" offset="1"/>
  </linearGradient>
 </defs>
 <g>
  <title>background</title>
  <rect fill="none" id="canvas_background" height="344" width="402" y="-1" x="-1"/>
 </g>
 <g>
  <title>Layer 1</title>
  <path stroke="null" id="svg_1" fill="url(#SVGID_1__43999)" d="m129.02259,114.17906l48.53362,36.2548c3.7675,2.81418 9.29013,2.81418 13.05763,0l48.53362,-36.2548c3.58089,-2.67614 1.4374,-7.84586 -3.26315,-7.84586l-103.60363,0c-4.70054,0 -6.84403,5.16972 -3.2581,7.84586z"/>
  <path stroke="null" id="svg_2" fill="url(#SVGID_2__43999)" d="m344.02739,58.38001c-5.56436,-2.23675 -13.70561,-4.04413 -22.91111,-4.04413c-29.76122,0 -50.74371,20.82975 -50.74371,43.95616c0,14.73859 10.70194,23.00159 23.1218,23.00159c12.84665,0 22.70042,-7.42422 30.1934,-17.40971l0.85356,0c-0.64287,9.9855 7.28229,17.40971 15.84492,17.40971c20.12893,0 38.11316,-15.41761 38.11316,-43.39198c0,-31.14476 -25.05042,-53.90171 -62.30461,-53.90171c-38.24822,0 -65.51358,21.51375 -74.71368,49.92748l-149.3031,0c-14.89411,0 -27.01145,11.19873 -27.01145,24.96374l0,129.81146c0,13.76501 12.11734,24.96374 27.01145,24.96374l194.48245,0c14.89411,0 27.01145,-11.19873 27.01145,-24.96374l0,-75.34057c9.81056,-0.85376 18.64871,-3.01063 27.3572,-7.00982l-3.42505,-8.01835c-8.77872,4.28877 -20.12893,6.53051 -32.33271,6.53051c-31.68984,0 -55.02773,-19.21709 -55.02773,-50.36185c0,-37.86001 29.33444,-61.92506 64.23323,-61.92506c33.18627,0 51.81877,19.38684 51.81877,46.43755c0,21.63358 -12.20918,34.30517 -23.1272,34.11545c-7.0662,-0.18473 -9.63769,-6.7452 -6.42332,-20.91962l7.28229,-33.83086zm-251.84937,25.53292l146.90988,0c-0.64287,3.83443 -1.04804,7.72877 -1.04804,11.70799c0,12.58672 3.73838,23.47091 10.03205,32.35301l-48.38831,36.58686c-5.95332,4.49347 -14.58078,4.49347 -20.53411,0l-99.40214,-75.16583c2.97666,-3.32018 7.41194,-5.48204 12.43067,-5.48204zm49.09061,64.90573l-65.29748,49.37828l0,-98.75656l65.29748,49.37828zm145.39184,94.86222l-194.48245,0c-8.93539,0 -16.20687,-6.72024 -16.20687,-14.97825l0,-17.60443l73.8331,-55.82891l22.51134,17.02527c4.9539,3.74456 11.02607,5.61684 17.10365,5.61684c6.07217,0 12.14975,-1.87228 17.10365,-5.61684l22.51675,-17.02527l73.8277,55.82891l0,17.60443c0,8.25801 -7.27148,14.97825 -16.20687,14.97825zm16.20687,-89.86947l0,44.38553l-65.29748,-49.37828l17.23871,-13.03607c11.97688,11.51328 29.22099,18.01384 48.05877,18.02881zm21.89008,-66.95276c-2.3554,11.56321 -13.70561,25.36316 -26.12007,25.36316c-9.42159,0 -14.13239,-5.96633 -14.13239,-14.17441c0,-18.09372 15.20205,-33.57124 34.04523,-33.57124c4.92689,0 8.56803,0.74891 10.70734,1.3081l-4.50011,21.07439z"/>
  <rect stroke="null" id="svg_3" fill="url(#SVGID_3__43999)" height="7" width="112.16654" y="204.16653" x="138.66644"/>
  <text font-style="normal" font-weight="bold" stroke="#000" transform="matrix(3.6900247095303045,0,0,4.936605928566529,-278.2083853818387,-1089.0210505434754) " xml:space="preserve" text-anchor="start" font-family="monospace" font-size="7" id="svg_4" y="286.37008" x="95.36295" stroke-width="0" fill="#000000">Check Your Email!</text>
 </g>
</svg>