<svg height="512pt" viewBox="0 0 512.01684 512" width="512pt" xmlns="http://www.w3.org/2000/svg"><path d="m187.648438 512.007812c28.5.007813 56.585937-6.800781 81.921874-19.855468l7.371094 7.371094c13.324219 13.292968 33.78125 16.289062 50.355469 7.371093 16.570313-8.921875 25.34375-27.644531 21.589844-46.085937h120.445312c4.714844 0 8.535157-3.820313 8.535157-8.53125v-42.667969c-.046876-.375-.121094-.746094-.222657-1.109375-.15625-10.613281-2.253906-21.109375-6.1875-30.96875 46.023438-13.824219 40.5-44.96875 40.210938-46.386719-.441407-2.222656-1.75-4.175781-3.636719-5.433593-21.332031-14.242188-21.792969-43.828126-21.792969-44.101563v-18.433594c0-6.269531.101563-12.59375.222657-18.960937 1.632812-26-.292969-52.101563-5.71875-77.582032-3.414063-12.871093-13.449219-41.328124-37.007813-48.453124v-79.839844c.027344-5.136719-3.058594-9.78125-7.808594-11.75-4.894531-1.996094-10.515625-.847656-14.234375 2.910156-4.242187 6.046875-7.136718 12.929688-8.488281 20.191406-1.015625 3.320313-2.5 8.199219-3.988281 12.355469-2.875-7.816406-5.972656-19.625-7.679688-26.332031-1.421875-7.230469-3.652344-14.277344-6.644531-21.011719-2.292969-3.820313-6.421875-6.160156-10.878906-6.160156-4.453125 0-8.582031 2.339843-10.875 6.160156-2.984375 6.738281-5.214844 13.78125-6.648438 21.011719-1.703125 6.738281-4.8125 18.523437-7.679687 26.339844-1.484375-4.15625-2.96875-9.027344-3.984375-12.347657-1.363281-7.265625-4.273438-14.152343-8.53125-20.199219-3.722657-3.761718-9.34375-4.910156-14.242188-2.910156-4.734375 1.976563-7.808593 6.613282-7.785156 11.742188v24.976562c-33.90625-40.300781-83.945313-63.488281-136.617187-63.3085935-50.203126 0-103.234376 20.6093755-135.140626 52.5078125-33.71875 33.527344-52.625 79.144531-52.507812 126.695313v153.597656c0 97.136718 85.929688 179.199218 187.648438 179.199218zm273.152343-68.265624h-153.601562v-25.597657c0-8.058593 14.601562-17.070312 34.132812-17.070312 19.535157 0 34.136719 9.011719 34.136719 17.070312 0 4.710938 3.820312 8.53125 8.53125 8.53125 4.714844 0 8.535156-3.820312 8.535156-8.53125 0-8.058593 14.597656-17.070312 34.132813-17.070312 19.53125 0 34.132812 9.011719 34.132812 17.070312zm-119.46875-207.09375c17.566407-4.9375 32.734375-16.101563 42.667969-31.402344 9.933594 15.300781 25.101562 26.464844 42.667969 31.402344v19.359374c0 23.566407-19.101563 42.667969-42.667969 42.667969-23.5625 0-42.667969-19.101562-42.667969-42.667969zm42.667969 79.09375c3.964844 0 7.917969-.394532 11.800781-1.175782 3.0625 16.929688 12.398438 32.078125 26.148438 42.417969 4.265625 2.839844 8.320312 5.230469 12.089843 7.457031 6.605469 3.285156 12.574219 7.710938 17.640626 13.074219 3.167968 3.964844 5.378906 8.609375 6.46875 13.566406-9.792969-4.800781-20.578126-7.222656-31.480469-7.074219-15.628907-.671874-30.914063 4.710938-42.667969 15.027344-11.753906-10.316406-27.039062-15.699218-42.667969-15.027344-10.890625-.148437-21.667969 2.273438-31.453125 7.066407 1.089844-4.992188 3.316406-9.664063 6.511719-13.652344 5.050781-5.328125 10.992187-9.726563 17.5625-13.003906 3.769531-2.226563 7.824219-4.609375 12.109375-7.460938 13.746094-10.339843 23.085938-25.488281 26.144531-42.417969 3.882813.792969 7.832031 1.195313 11.792969 1.203126zm80.214844-144.792969c4.964844 23.984375 6.683594 48.527343 5.117187 72.96875-.109375 6.460937-.21875 12.894531-.21875 19.257812v18.433594c0 1.511719.296875 35.6875 25.699219 55.628906-.6875 5.792969-5.570312 18.652344-33.808594 25.445313-5.585937-5.027344-11.746094-9.375-18.355468-12.953125-3.53125-2.074219-7.3125-4.265625-11.3125-6.960938-10.472657-8.535156-17.398438-20.660156-19.421876-34.015625 19.550782-10.335937 31.796876-30.628906 31.820313-52.746094v-17.066406c4.710937 0 8.53125-3.820312 8.53125-8.53125 0-4.714844-3.820313-8.535156-8.53125-8.535156-36.207031 0-51.199219-35.796875-51.804687-37.304688-1.292969-3.246093-4.433594-5.378906-7.929688-5.378906-3.492188 0-6.632812 2.132813-7.925781 5.378906-.179688.375-15.371094 37.304688-51.808594 37.304688-4.710937 0-8.53125 3.820312-8.53125 8.535156 0 4.710938 3.820313 8.53125 8.53125 8.53125v17.066406c.015625 22.105469 12.238281 42.398438 31.769531 52.746094-2.019531 13.359375-8.949218 25.484375-19.429687 34.015625-3.992188 2.660157-7.789063 4.886719-11.324219 6.96875-6.601562 3.578125-12.761719 7.925781-18.34375 12.945313-28.339844-6.824219-33.144531-19.746094-33.828125-25.429688 15.015625-12.960937 24.203125-31.40625 25.5-51.199218v-.179688c.203125-2.421875.226563-3.984375.226563-4.265625v-18.433594c0-6.363281-.117188-12.796875-.226563-19.257812v-32.28125c.199219-13.695313 1.914063-27.328125 5.117187-40.644531 2.339844-8.890626 8.628907-27.632813 21.199219-34.652344 1.617188 4.886718 6.007813 8.332031 11.144531 8.734375l6.261719 1.136719c13.75 2.5 27.695313 3.75 41.667969 3.738281 13.964844 0 27.902344-1.265625 41.644531-3.773438l6.21875-1.101562c5.101563-.414063 9.464844-3.828125 11.09375-8.675781 13.074219 7.398437 19.414063 27.585937 21.257813 34.550781zm-261.121094 254.464843c-5.105469.839844-10.269531 1.265626-15.445312 1.261719-54.527344 0-102.316407-43.859375-102.316407-93.867187v-153.597656c0-50.007813 47.789063-93.867188 102.316407-93.867188 24.90625-.039062 48.800781 9.839844 66.414062 27.453125 17.609375 17.609375 27.488281 41.507813 27.453125 66.414063v31.914062c-.351563 11.09375-.1875 22.1875 0 33.089844v40.960937c-.972656 16.011719-8.84375 30.8125-21.574219 40.566407-1.882812 1.257812-3.191406 3.214843-3.632812 5.4375-1.726563 14.710937 5.480468 29.035156 18.320312 36.421874-.851562 2.125-1.5625 4.34375-2.558594 6.371094l-5.976562-5.972656c-16.121094-16.085938-42.039062-16.671875-58.875-1.332031-16.832031 15.339843-18.648438 41.199219-4.125 58.746093zm138.238281-361.609374c4.183594 12.902343 8.382813 21.539062 17.070313 21.539062 12.226562 0 17.066406-16.386719 24.601562-45.347656.3125-1.21875.65625-2.558594.996094-3.855469.351562 1.332031.691406 2.636719 1.007812 3.863281 7.527344 28.953125 12.339844 45.339844 24.59375 45.339844 8.652344 0 12.851563-8.621094 17.066407-21.511719v64.851563l-4.070313.742187c-25.515625 4.648438-51.660156 4.648438-77.175781 0l-4.089844-.777343zm-324.265625 115.40625c-.105468-43.019532 17-84.296876 47.507813-114.628907 28.859375-28.859375 77.171875-47.507812 123.074219-47.507812 55.40625-.191407 107.015624 28.125 136.617187 74.957031v26.113281c-13.785156 5.179688-24.742187 15.941407-30.164063 29.636719-13.886718-47.207031-57.246093-79.589844-106.453124-79.503906-63.597657 0-119.382813 51.839844-119.382813 110.933594v153.597656c0 59.09375 55.785156 110.933594 119.382813 110.933594 11.765624.023437 23.453124-1.851563 34.621093-5.554688 2.808594-.933594 4.933594-3.257812 5.613281-6.136719.679688-2.882812-.183593-5.910156-2.277343-8.003906l-7.757813-7.738281c-9.964844-10.027344-9.964844-26.222656 0-36.25 10.152344-9.632813 26.070313-9.632813 36.222656 0l13.910157 13.910156c1.828125 1.820312 4.378906 2.71875 6.941406 2.441406s4.863281-1.699218 6.261719-3.867187c3.425781-5.46875 6.351562-11.234375 8.746094-17.230469 2.066406.785156 4.265624 1.511719 6.605468 2.210938-3.914062 9.808593-6.003906 20.246093-6.179687 30.804687-.109375.421875-.183594.847656-.222657 1.28125v42.667969c0 4.710937 3.820313 8.53125 8.535157 8.53125h32.570312c3.308594 9.292968.984375 19.660156-5.972656 26.652344-10.148437 9.652343-26.085937 9.652343-36.234375 0l-11.859375-11.863282c-2.710937-2.714844-6.898437-3.289062-10.238281-1.398437-24.207032 13.609375-51.515625 20.753906-79.285156 20.742187-92.46875 0-170.582032-74.238281-170.582032-162.132812zm0 0"/><path d="m366.933594 264.542969c4.714844 0 8.535156-3.820313 8.535156-8.535157v-8.53125c0-4.714843-3.820312-8.535156-8.535156-8.535156-4.710938 0-8.53125 3.820313-8.53125 8.535156v8.53125c0 4.714844 3.820312 8.535157 8.53125 8.535157zm0 0"/><path d="m401.066406 264.542969c4.714844 0 8.535156-3.820313 8.535156-8.535157v-8.53125c0-4.714843-3.820312-8.535156-8.535156-8.535156-4.710937 0-8.53125 3.820313-8.53125 8.535156v8.53125c0 4.714844 3.820313 8.535157 8.53125 8.535157zm0 0"/></svg>