<?xml version="1.0" encoding="utf-8"?>
<!-- Svg Vector Icons : http://www.onlinewebfonts.com/icon -->
<!DOCTYPE svg PUBLIC "-//W3C//DTD SVG 1.1//EN" "http://www.w3.org/Graphics/SVG/1.1/DTD/svg11.dtd">
<svg version="1.1" xmlns="http://www.w3.org/2000/svg" xmlns:xlink="http://www.w3.org/1999/xlink" x="0px" y="0px" viewBox="0 0 1000 1000" enable-background="new 0 0 1000 1000" xml:space="preserve">
<metadata> Svg Vector Icons : http://www.onlinewebfonts.com/icon </metadata>
<g><path d="M905.2,941.1l-1.3-10.1c-5.3-38.7-14.5-76.6-27.7-112.7c-8.7,6.5-17.7,12.6-26.5,18.4c-0.2,0.2-0.6,0.4-0.9,0.6c10.6,29.9,18.3,61.1,23,92.4l2.2,0.2v16.4c0,9,7.2,16.4,16.1,16.4c8.8,0,15.9-7.3,16-16.6v-0.2c0-0.9-0.1-2.1-0.7-4.4L905.2,941.1z M575.3,559.3l6.5,2.2c17.3,6,34.9,13.6,52.3,22.5l22.1-25.2c-6.5-3.5-12.7-6.7-18.8-9.6l-23.8-11.4l19.9-17.3c60.3-52.5,94.9-128.4,94.9-208.5c0-151.4-121.4-274.7-270.6-274.7S187.2,160.4,187.2,311.9c0,80.1,34.6,156,94.9,208.5l19.9,17.3l-23.7,11.4c-144,68.7-243.7,211.5-266.7,381.9L10,942.7v3.8c0,9,7.2,16.4,16,16.4c8.7,0,15.8-7.1,16-15.9l-0.4-3.7l1.8-12.8c25.2-172.3,139.1-317.1,290.1-369l6.5-2.3l6.2,2.8c35.4,16.4,72.8,24.7,111.4,24.7c38.5,0,75.9-8.3,111.4-24.7L575.3,559.3z M457.7,554.4c-16.7,0-33.8-1.8-50.5-5.6c-22.7-5-44.6-13.3-65-24.8C266,481.3,218.8,399.9,218.8,312c0-133.7,107.2-242.5,239.1-242.5c131.7,0,238.9,108.8,238.9,242.5c0,87.9-47.3,169.2-123.4,212.1c-20.3,11.5-42.1,19.8-65,24.8C491.6,552.6,474.5,554.4,457.7,554.4z M982.3,637.5l-9.2-9.2l-27.6-27.6l-18.4-18.4c-15.3,15.3-39.9,15.3-55.2,0s-15.3-40,0-55.3l-18.3-18.4l-9.2-9.2l-27.6-27.6c-10.1-10.1-26.6-10.1-36.8,0L600.6,651.5l-9.2,9.3l-69,69.1c-10.1,10.1-10.1,26.6,0,36.9l18.4,18.4l18.4,18.4l18.4,18.4c15.3-15.3,39.9-15.3,55.2,0c15.3,15.3,15.3,40,0,55.3l18.4,18.4l18.4,18.4l18.4,18.4c10.1,10.1,26.6,10.1,36.8,0l69-69.1l9.2-9.3l179.4-179.6C992.5,664.3,992.5,647.7,982.3,637.5z M954.7,665.3L789.1,831l-13.8-13.8c-2.6-2.6-6.6-2.6-9.2,0l-9.3,9.2c-2.6,2.6-2.6,6.7,0,9.2l13.8,13.8l-55.2,55.4c-5.1,5.1-13.3,5.1-18.4,0l-31.5-31.5c9.2-23.3,4.4-50.9-14.5-69.8c-18.9-18.9-46.4-23.7-69.7-14.5l-31.5-31.5c-5.1-5.1-5.1-13.3,0-18.4l55.2-55.3l13.8,13.8c2.6,2.6,6.6,2.6,9.2,0l9.2-9.2c2.6-2.6,2.6-6.7,0-9.2l-13.8-13.8l165.6-165.8c5.1-5.1,13.3-5.1,18.4,0l31.5,31.5c-9.2,23.3-4.3,50.9,14.5,69.8c18.8,18.8,46.4,23.7,69.7,14.5l31.5,31.5C959.8,651.8,959.8,660.1,954.7,665.3z M720.1,762c-2.6-2.6-6.7-2.6-9.2,0l-9.2,9.2c-2.6,2.6-2.6,6.7,0,9.3l27.6,27.6c2.6,2.6,6.7,2.6,9.2,0l9.2-9.2c2.6-2.6,2.6-6.7,0-9.2L720.1,762z M664.9,706.7c-2.6-2.6-6.7-2.6-9.2,0l-9.2,9.2c-2.6,2.6-2.6,6.6,0,9.2l27.6,27.6c2.6,2.6,6.7,2.6,9.2,0l9.2-9.2c2.6-2.6,2.6-6.7,0-9.2L664.9,706.7z"/></g>
</svg>